<?xml version="1.0" standalone="no"?>
<!DOCTYPE svg PUBLIC "-//W3C//DTD SVG 20010904//EN"
 "http://www.w3.org/TR/2001/REC-SVG-20010904/DTD/svg10.dtd">
<svg version="1.0" xmlns="http://www.w3.org/2000/svg"
 width="4168.000000pt" height="4168.000000pt" viewBox="0 0 4168.000000 4168.000000"
 preserveAspectRatio="xMidYMid meet">

<g transform="translate(0.000000,4168.000000) scale(0.100000,-0.100000)"
fill="#000000" stroke="none">
<path d="M16290 38984 c-331 -42 -614 -179 -840 -404 -330 -330 -471 -795
-381 -1255 109 -559 549 -992 1116 -1101 124 -24 378 -25 500 -1 501 98 903
445 1068 922 97 280 98 609 5 890 -155 465 -557 824 -1036 925 -95 20 -350 34
-432 24z m384 -100 c262 -50 499 -176 686 -364 251 -252 382 -566 383 -915 0
-229 -42 -407 -145 -608 -346 -674 -1191 -915 -1838 -524 -322 195 -550 527
-616 897 -25 137 -22 346 5 477 55 264 174 486 361 673 220 220 508 355 820
384 74 6 259 -4 344 -20z"/>
<path d="M16585 38363 c-220 -49 -386 -203 -440 -409 -19 -73 -19 -202 0 -274
49 -185 192 -334 375 -391 46 -15 92 -21 160 -21 161 0 293 57 401 172 254
271 176 705 -158 874 -92 46 -250 69 -338 49z m220 -170 c185 -59 304 -259
266 -445 -27 -133 -106 -233 -229 -291 -61 -29 -76 -32 -162 -32 -86 0 -101 3
-162 32 -126 59 -204 161 -229 296 -38 204 101 405 311 453 62 15 132 10 205
-13z"/>
<path d="M15910 37314 c-118 -107 -228 -208 -244 -224 l-29 -29 79 -87 c43
-48 93 -102 109 -121 l30 -35 245 223 c135 122 246 225 248 229 3 8 -206 240
-216 240 -4 0 -104 -88 -222 -196z"/>
<path d="M24225 37399 c-546 -41 -1019 -408 -1202 -934 -47 -134 -64 -233 -70
-400 -7 -193 11 -326 63 -485 157 -473 544 -824 1029 -932 132 -29 369 -35
507 -14 211 33 388 103 572 226 283 189 486 482 572 824 36 139 45 405 19 558
-47 285 -183 547 -390 753 -292 292 -681 435 -1100 404z m405 -109 c256 -63
451 -172 631 -350 111 -110 182 -207 249 -340 156 -311 183 -668 75 -997 -228
-688 -957 -1058 -1650 -837 -385 123 -710 447 -838 834 -48 146 -61 233 -62
410 0 177 13 265 61 409 108 323 344 600 641 754 110 57 270 112 384 132 123
21 396 14 509 -15z"/>
<path d="M24107 36863 c-4 -3 -7 -143 -7 -310 l0 -303 -305 0 -305 0 0 -240 0
-240 305 0 305 0 0 -305 0 -305 240 0 240 0 0 305 0 305 305 0 305 0 0 240 0
240 -305 0 -305 0 0 310 0 310 -233 0 c-129 0 -237 -3 -240 -7z"/>
<path d="M12202 34980 c-116 -17 -217 -95 -270 -208 l-27 -57 -5 -1655 -5
-1655 -137 -3 -137 -3 -5 33 c-3 18 -31 366 -61 773 -31 407 -58 748 -61 758
-8 25 -66 51 -98 43 -14 -3 -32 -16 -40 -29 -7 -12 -141 -370 -296 -795 l-283
-772 -43 -20 c-71 -31 -84 -63 -84 -206 l0 -120 -478 -1305 -479 -1304 -1349
-2 c-991 -2 -1355 -6 -1371 -14 -27 -14 -47 -61 -38 -89 4 -11 16 -30 28 -40
20 -20 43 -20 1417 -20 1184 0 1399 2 1416 14 14 10 140 342 434 1145 l415
1131 5 -834 5 -834 25 -27 c50 -55 53 -55 529 -55 l440 0 5 -32 c3 -18 58
-719 123 -1558 l118 -1525 5 -2465 5 -2465 29 -60 c36 -73 99 -135 174 -172
l57 -28 3950 0 3950 0 55 27 c80 39 132 88 171 160 l34 63 5 3755 5 3755 272
5 c233 4 275 7 288 21 9 9 54 146 101 305 46 159 88 299 94 311 9 22 13 23
212 25 l203 3 3 86 3 85 34 13 c66 24 104 103 84 175 -10 35 -8 40 25 77 21
22 37 51 38 67 2 41 -3 85 -11 100 -5 8 7 27 31 51 35 35 38 43 38 93 0 41 -6
64 -23 89 -23 34 -23 35 -5 64 37 61 14 157 -47 195 -24 15 -50 20 -99 20
l-66 0 0 154 0 154 350 1204 c193 661 353 1210 357 1218 3 8 7 11 9 5 1 -5
231 -1979 509 -4385 418 -3604 510 -4379 524 -4400 29 -41 113 -39 132 3 5 12
158 967 339 2122 182 1155 332 2104 333 2110 2 5 207 -501 457 -1124 267 -669
461 -1141 473 -1152 28 -25 70 -24 101 4 24 20 64 199 564 2515 297 1371 542
2495 545 2498 2 3 43 -5 91 -17 l86 -21 36 -117 c19 -64 73 -237 119 -386 108
-352 178 -581 206 -680 43 -154 124 -260 238 -314 47 -22 70 -26 146 -26 156
0 208 39 487 369 4 6 18 0 32 -13 18 -17 31 -22 48 -17 13 4 73 65 133 136 61
71 112 129 115 129 3 1 36 -55 73 -124 43 -79 86 -177 117 -270 55 -160 90
-237 126 -275 l23 -25 -9 -205 c-8 -161 -18 -255 -49 -440 -69 -408 -110 -762
-132 -1145 -14 -247 -6 -693 16 -865 8 -69 86 -476 173 -905 157 -778 157
-780 185 -793 17 -8 27 -21 27 -35 1 -12 25 -215 54 -451 l53 -429 -44 -1516
-43 -1516 -97 -430 -97 -430 -80 -86 c-85 -91 -188 -246 -208 -312 -16 -53 -1
-65 108 -84 117 -20 299 -13 403 17 124 35 273 120 337 191 12 13 39 77 60
141 21 65 39 116 40 115 2 -1 8 -60 15 -130 7 -70 18 -135 24 -144 12 -16 19
-16 96 2 46 10 94 24 107 32 l22 13 0 368 c0 204 -5 396 -11 432 -12 80 -55
175 -103 228 -48 53 -56 94 -63 342 -6 243 6 371 68 669 124 602 158 798 206
1181 8 64 11 52 256 -1030 l247 -1095 0 -430 0 -430 -55 -95 c-93 -160 -158
-357 -134 -402 11 -20 16 -21 123 -15 62 3 146 15 191 27 175 46 346 157 443
286 46 61 51 75 57 134 3 36 9 97 13 135 l8 70 42 -132 c24 -72 50 -137 58
-144 13 -11 31 -5 110 34 55 28 94 53 94 62 0 8 -38 180 -85 382 -90 391 -112
457 -181 532 -20 23 -51 50 -70 62 -41 25 -60 61 -102 189 -89 269 -109 432
-122 979 -11 440 -21 611 -51 841 -48 375 -145 741 -273 1029 l-45 102 44 307
c59 404 52 370 78 374 18 2 32 30 85 163 142 362 317 916 381 1210 73 340 96
550 88 800 -9 238 -43 443 -116 705 l-28 100 38 0 c25 0 44 7 56 19 10 11 35
86 57 173 35 138 44 160 86 218 26 36 53 75 59 88 l12 22 862 -1 c474 0 870
-3 879 -7 10 -4 319 -6 687 -4 l669 2 23 67 22 67 45 -128 c43 -121 61 -151
83 -129 5 5 23 80 41 167 17 87 34 152 38 144 4 -7 15 -85 24 -173 23 -215 23
-217 49 -213 19 3 26 19 53 123 16 65 33 115 36 110 3 -6 11 -30 18 -55 37
-141 41 -151 63 -148 21 3 23 7 52 111 l16 57 78 0 c64 0 80 3 85 17 11 28 -8
34 -109 31 l-98 -3 -11 -40 c-14 -48 -17 -44 -46 68 -41 155 -65 157 -100 8
-13 -55 -25 -100 -26 -98 -1 1 -12 85 -23 187 -29 259 -28 252 -54 248 -20 -3
-25 -18 -55 -163 -19 -88 -39 -180 -46 -204 l-11 -45 -34 100 c-59 175 -74
179 -121 38 l-32 -94 -658 0 c-407 0 -661 -4 -665 -10 -3 -5 -36 22 -73 60
l-67 70 -777 0 c-428 0 -778 4 -778 9 0 12 136 200 307 423 310 404 570 773
632 896 17 34 31 76 31 95 0 47 -45 113 -155 226 l-95 98 50 47 c28 26 50 56
50 66 0 13 -200 186 -611 527 l-611 508 -323 90 -323 90 -66 80 -66 79 0 156
0 156 38 37 39 38 67 -113 c145 -245 289 -417 413 -491 182 -111 430 -134 696
-66 93 23 127 41 127 68 0 29 -19 38 -93 44 -77 5 -117 27 -158 86 -111 157
-131 533 -64 1208 45 456 30 698 -61 972 -121 365 -390 632 -729 722 -113 30
-354 38 -457 15 -151 -34 -259 -107 -317 -215 -35 -66 -61 -169 -61 -244 0
-36 -7 -57 -29 -87 -15 -21 -34 -52 -41 -67 -9 -21 -35 -39 -108 -75 -290
-141 -482 -443 -482 -759 l0 -99 -40 0 c-140 0 -213 -161 -139 -308 45 -92
123 -147 220 -159 l49 -6 0 -41 c0 -92 54 -228 130 -330 42 -56 121 -135 188
-185 l42 -33 0 -91 0 -92 -81 -100 c-44 -55 -84 -103 -88 -108 -4 -4 -120 -38
-257 -76 -263 -72 -306 -89 -419 -169 -106 -74 -178 -144 -272 -264 -47 -60
-89 -105 -93 -101 -4 4 -231 418 -504 918 -274 501 -503 916 -509 922 -7 7
-26 15 -43 19 -24 4 -37 0 -58 -18 -25 -21 -32 -45 -72 -228 -24 -113 -52
-238 -60 -278 l-16 -73 -34 7 c-21 4 -40 2 -48 -5 -8 -7 -36 -99 -62 -205
l-48 -192 -53 4 c-49 4 -55 2 -88 -31 -27 -27 -35 -43 -35 -72 0 -20 5 -45 10
-55 8 -15 5 -27 -10 -52 -23 -38 -26 -95 -6 -124 12 -17 12 -22 0 -39 -18 -24
-18 -96 0 -120 12 -17 12 -22 -5 -44 -24 -30 -25 -98 -3 -129 15 -22 15 -29 0
-89 -15 -60 -15 -67 -1 -83 9 -10 33 -20 55 -24 21 -3 42 -11 45 -16 7 -11
-1003 -4690 -1014 -4703 -4 -4 -213 508 -465 1137 -251 629 -465 1151 -476
1161 -27 25 -88 17 -111 -15 -13 -19 -90 -490 -324 -1980 -169 -1075 -308
-1956 -310 -1958 -4 -5 -9 36 -507 4328 -468 4044 -494 4256 -515 4278 -14 14
-34 22 -56 22 -22 0 -40 -8 -54 -22 -14 -16 -132 -406 -387 -1283 -201 -693
-370 -1268 -374 -1278 -6 -16 -10 -15 -46 9 -21 14 -53 30 -72 36 l-34 9 0
279 c0 266 -1 280 -19 290 -29 15 -414 13 -429 -2 -9 -9 -12 -87 -12 -288 l0
-275 -48 -17 c-63 -23 -125 -77 -153 -136 -21 -41 -24 -65 -27 -206 l-4 -158
-46 -32 c-25 -17 -83 -61 -129 -98 -45 -38 -85 -68 -88 -68 -3 0 -6 1047 -7
2328 l-3 2327 -28 56 c-30 63 -103 136 -165 168 -23 12 -72 25 -109 31 -81 12
-7740 12 -7821 0z m408 -117 c-18 -20 -45 -62 -59 -93 l-26 -55 -3 -1652 -2
-1653 -270 0 -270 0 2 1643 3 1642 27 51 c15 29 46 68 69 87 69 60 98 65 343
66 l218 1 -32 -37z m7485 10 c23 -12 60 -42 82 -66 79 -86 73 129 73 -2489 l0
-2339 -35 -37 c-20 -20 -52 -70 -72 -110 -30 -60 -37 -86 -41 -153 -4 -66 -8
-81 -24 -90 -15 -8 -23 -7 -34 8 -7 10 -14 21 -14 25 0 4 -9 12 -21 18 -17 10
-28 7 -60 -14 l-39 -26 0 2365 c0 2327 0 2364 -19 2375 -14 7 -1111 10 -3470
10 l-3450 0 -15 -22 c-14 -20 -16 -176 -16 -1470 l0 -1448 -165 0 -165 0 0
1634 c0 1794 -4 1675 60 1756 18 23 56 52 92 69 l61 31 3616 -2 3616 -3 40
-22z m9660 -302 c190 -39 353 -129 486 -268 160 -169 254 -368 306 -653 25
-139 23 -456 -5 -710 -12 -107 -27 -299 -34 -427 -26 -493 31 -784 173 -889
l31 -22 -59 -8 c-89 -12 -230 -7 -308 11 -161 37 -290 133 -423 313 -62 83
-176 267 -207 333 -18 37 -18 37 13 90 17 30 40 83 52 119 26 78 59 116 108
124 56 9 142 65 184 121 72 96 88 202 43 291 -23 45 -25 56 -19 129 13 163
-30 348 -117 502 -62 111 -216 263 -326 323 -68 38 -82 50 -87 75 -18 90 -105
181 -199 206 -57 15 -185 12 -236 -6 l-44 -15 6 58 c13 153 127 269 301 307
91 20 255 18 361 -4z m-9925 -2675 l0 -2364 -307 -242 c-211 -167 -311 -240
-319 -234 -7 5 -196 243 -421 529 -252 321 -423 549 -449 597 -117 217 -293
383 -560 529 -41 23 -77 45 -80 50 -8 14 -221 119 -241 119 -10 0 -29 9 -42
19 l-24 19 6 165 6 166 50 61 c113 140 168 315 178 560 l6 135 38 44 c51 58
81 139 82 221 0 82 -20 132 -77 185 l-43 40 19 120 c13 76 20 177 21 275 2
154 2 156 -28 215 -35 70 -147 192 -225 245 -188 127 -412 182 -685 166 -394
-23 -669 -142 -758 -328 -101 -208 -122 -524 -52 -763 5 -17 -2 -23 -45 -38
-107 -38 -164 -118 -164 -232 0 -171 130 -308 323 -338 67 -10 71 -12 71 -37
0 -46 38 -179 70 -244 17 -34 56 -95 86 -136 l55 -73 -12 -133 c-10 -110 -15
-133 -29 -137 -11 -3 -27 -33 -44 -79 l-27 -74 -115 -57 c-69 -34 -118 -65
-122 -77 -4 -11 -52 -42 -117 -75 -139 -71 -359 -217 -523 -347 -146 -116
-341 -311 -414 -413 -125 -176 -205 -404 -238 -675 -21 -176 -32 -864 -25
-1592 l7 -728 -379 0 c-326 0 -382 -2 -401 -16 l-22 -15 0 -1289 c0 -1158 2
-1290 16 -1304 13 -14 65 -16 415 -16 l399 0 -5 -67 c-5 -53 -105 -2138 -105
-2175 0 -4 -349 -8 -775 -8 l-775 0 0 2978 c0 2963 0 2979 20 2997 11 10 24
34 30 54 6 21 10 186 10 393 l0 357 463 3 c444 3 463 4 489 23 62 47 58 -42
58 1262 0 1160 -1 1189 -20 1220 -43 70 -20 68 -562 71 l-488 3 0 1424 0 1425
3400 0 3400 0 0 -2364z m9557 2236 c34 -18 83 -67 83 -85 0 -2 -28 2 -62 11
-68 16 -268 21 -333 8 l-40 -8 29 31 c68 71 227 92 323 43z m-12 -167 c369
-77 635 -402 635 -778 l0 -84 -47 4 c-33 4 -65 -1 -100 -15 l-53 -20 0 56 c-2
249 -131 480 -338 606 -186 113 -447 128 -642 35 -236 -111 -381 -319 -400
-574 l-7 -100 -1 90 c-3 211 77 406 232 561 192 191 460 273 721 219z m-95
-241 c188 -55 340 -198 408 -384 l27 -75 3 -348 c4 -389 2 -401 -66 -532 -71
-134 -242 -279 -398 -337 -165 -62 -350 -3 -535 170 -84 78 -142 161 -180 257
-23 58 -24 70 -27 385 -4 367 3 421 61 545 86 179 261 308 462 339 52 8 189
-3 245 -20z m-11931 -741 c51 -60 106 -169 125 -248 23 -94 67 -504 73 -680
19 -535 -138 -802 -522 -891 -225 -52 -507 61 -680 273 -63 76 -122 200 -141
297 l-16 78 28 23 c26 20 27 25 16 49 -11 25 -12 25 -104 20 -79 -5 -101 -3
-148 15 -74 28 -123 70 -154 133 -69 139 7 269 158 269 56 0 96 -15 154 -58
40 -30 76 -27 80 6 2 13 -1 34 -8 46 -10 18 -5 39 25 126 59 169 105 363 112
472 l6 97 31 -1 c17 0 159 -6 315 -13 274 -11 291 -11 435 10 83 12 156 22
163 23 6 0 30 -20 52 -46z m11022 20 l54 -28 3 -122 3 -123 -36 0 c-44 0 -106
31 -133 65 -34 43 -55 110 -48 149 7 37 55 86 85 86 10 0 42 -12 72 -27z
m1642 -9 c39 -39 51 -86 38 -140 -22 -87 -91 -161 -172 -184 -73 -21 -70 -28
-67 146 l3 156 45 24 c61 33 119 32 153 -2z m-3354 -604 c55 -101 99 -186 96
-188 -2 -2 -64 11 -139 30 -99 24 -136 37 -136 48 -1 34 64 310 71 303 4 -5
53 -91 108 -193z m-15245 -438 c23 -299 40 -545 37 -547 -7 -7 -501 -6 -501 1
0 3 93 261 208 572 131 358 208 557 211 542 2 -14 22 -269 45 -568z m6242 392
c18 -44 18 -100 -2 -158 -9 -26 -18 -46 -19 -44 -7 6 -24 231 -19 239 9 15 25
-1 40 -37z m9082 -229 c2 -2 -23 -107 -55 -234 l-58 -231 -67 0 c-78 0 -85 -5
-130 -94 -65 -129 -92 -230 -70 -262 29 -41 100 -56 139 -29 12 8 24 12 27 7
2 -4 -9 -62 -26 -128 l-30 -121 -224 56 c-183 45 -224 59 -224 73 0 30 17 29
95 -9 75 -35 79 -36 118 -22 53 18 80 55 79 109 -1 23 -6 48 -13 56 -10 12 -9
21 6 46 21 35 23 101 5 123 -10 12 -9 21 4 49 19 40 20 66 5 99 -9 19 -7 30
10 58 44 71 19 134 -68 179 l-59 29 45 179 45 179 221 -55 c122 -30 223 -56
225 -57z m421 -637 l320 -588 -90 -127 c-50 -71 -130 -185 -177 -255 -47 -71
-88 -128 -91 -128 -7 0 -351 761 -351 776 0 6 13 35 30 65 62 115 74 243 30
315 -11 17 -42 43 -70 58 -27 15 -50 32 -50 37 0 8 71 300 101 413 6 21 14 35
19 30 4 -5 152 -273 329 -596z m2309 371 c-7 -5 -47 -17 -88 -26 -109 -26
-296 -23 -417 6 l-93 23 0 75 c0 68 2 74 18 67 174 -76 316 -73 482 11 36 18
74 40 85 48 20 15 20 14 23 -90 2 -78 -1 -109 -10 -114z m-3303 -57 c67 -35
90 -52 90 -67 0 -11 -7 -21 -17 -23 -15 -3 -167 67 -195 90 -15 12 0 48 20 48
7 -1 53 -22 102 -48z m2775 -45 c119 -30 380 -30 487 -1 l73 20 62 -75 c35
-42 69 -84 76 -93 11 -14 10 -21 -4 -45 -131 -208 -319 -315 -496 -284 -140
24 -281 126 -392 283 l-48 68 64 80 c43 55 68 78 78 74 8 -3 53 -15 100 -27z
m-2799 -122 c90 -46 112 -66 91 -87 -9 -9 -36 0 -104 32 -106 49 -123 62 -115
84 10 24 30 20 128 -29z m471 -66 c73 -16 145 -54 154 -81 27 -86 -31 -238
-131 -344 -30 -32 -57 -56 -59 -53 -11 10 18 95 37 110 14 11 18 23 14 40 -3
13 -11 44 -17 68 -8 31 -8 65 0 119 12 85 4 105 -39 100 -21 -2 -34 -18 -71
-87 -49 -92 -80 -122 -56 -53 31 88 85 192 100 192 8 0 39 -5 68 -11z m2068
-56 c56 -83 149 -177 226 -228 162 -108 348 -121 517 -37 87 43 228 177 277
265 19 34 39 57 48 57 10 -1 127 -31 262 -68 218 -61 245 -70 242 -88 -9 -67
-14 -176 -8 -199 6 -22 11 -26 39 -23 l32 3 6 93 c3 50 8 94 10 96 7 7 1114
-915 1114 -927 0 -6 -126 -126 -281 -267 l-280 -257 -235 193 -234 194 -22 84
c-36 142 -64 324 -69 461 -6 159 -9 172 -35 180 -39 13 -49 -10 -49 -117 0
-133 15 -263 51 -443 20 -99 28 -163 24 -190 -9 -61 -167 -525 -223 -657 -27
-64 -61 -137 -76 -162 l-27 -46 -839 0 -839 0 -35 73 c-78 163 -252 819 -258
972 -1 35 141 963 149 974 2 3 450 129 463 130 3 0 25 -30 50 -66z m-2535 -41
c67 -35 90 -52 90 -67 0 -33 -29 -28 -123 19 -95 48 -107 58 -98 81 9 24 36
17 131 -33z m1929 -79 c-2 -10 -35 -216 -73 -458 l-69 -440 13 -90 c8 -49 18
-110 24 -134 8 -37 7 -48 -7 -66 -46 -58 -275 -315 -281 -315 -6 0 -336 347
-424 447 l-39 43 63 93 c379 557 567 787 728 895 35 23 65 42 67 42 1 0 0 -8
-2 -17z m-1939 -91 c67 -35 90 -52 90 -67 0 -33 -29 -28 -123 19 -95 48 -107
58 -98 81 9 24 36 17 131 -33z m-12133 11 c17 -15 18 -65 18 -1185 0 -1155 0
-1168 -20 -1188 -19 -19 -33 -20 -499 -20 -387 0 -481 -3 -490 -13 -7 -10 -12
-139 -13 -413 l-3 -399 -23 0 c-21 0 -57 53 -253 375 -127 206 -241 392 -255
413 l-24 37 -835 0 c-822 0 -835 0 -855 20 -20 20 -20 33 -20 1187 0 1071 1
1168 17 1185 15 17 79 18 1626 18 1485 0 1612 -1 1629 -17z m7208 -143 l0
-110 -150 0 -150 0 0 110 0 110 150 0 150 0 0 -110z m-4735 45 c142 -96 276
-138 430 -137 138 1 228 26 398 110 5 2 7 -72 5 -164 -3 -159 -7 -182 -53
-386 -33 -147 -52 -215 -59 -209 -6 4 -193 140 -415 301 l-403 293 6 76 c8 88
17 161 21 161 1 0 33 -20 70 -45z m10479 -673 c130 -288 243 -536 251 -552 16
-30 37 -42 60 -34 33 13 26 50 -34 182 -33 72 -56 134 -51 137 9 5 53 -39 279
-278 88 -94 100 -111 89 -125 -47 -62 -189 -220 -238 -265 -99 -92 -198 -109
-307 -53 -104 53 -138 114 -224 401 -33 110 -114 374 -180 586 -65 212 -119
389 -119 392 0 3 10 7 22 9 13 2 28 15 35 29 9 18 24 29 46 33 17 4 52 22 77
40 25 19 48 31 52 27 3 -3 113 -242 242 -529z m-5746 314 c1 -67 7 -126 14
-133 6 -7 22 -13 36 -13 44 0 112 -40 140 -83 l27 -40 3 -249 3 -248 -96 0
c-105 0 -146 -12 -184 -54 -14 -14 -35 -26 -48 -26 -20 0 -23 5 -23 40 l0 40
-40 0 -40 0 0 -40 0 -40 -45 0 -45 0 0 -40 0 -40 45 0 45 0 0 -40 0 -40 40 0
40 0 0 40 c0 57 20 51 52 -16 25 -51 26 -58 13 -77 -17 -24 -20 -109 -5 -137
8 -15 2 -26 -30 -58 -36 -36 -40 -44 -40 -91 0 -29 5 -61 10 -71 8 -15 6 -22
-11 -34 -59 -41 -79 -141 -40 -200 36 -55 66 -66 177 -66 56 0 129 -3 163 -6
l61 -7 0 -43 0 -44 -370 0 -370 0 0 345 0 346 50 65 c60 78 72 100 96 178 18
56 25 64 129 151 174 146 205 185 205 256 0 68 -61 129 -129 129 -32 0 -125
-44 -294 -140 l-59 -33 4 131 c3 114 6 134 24 159 29 39 80 71 123 78 66 11
66 10 69 149 l3 127 147 -3 147 -3 3 -119z m-4465 -203 c232 -168 424 -308
426 -309 5 -5 -229 -254 -238 -253 -3 0 -141 150 -306 333 -341 379 -358 404
-329 490 9 25 18 46 20 46 2 0 194 -138 427 -307z m-60 -1173 c256 -728 465
-1325 464 -1327 -2 -1 -721 941 -784 1027 -10 14 8 28 133 106 222 137 215
151 -75 161 -132 4 -204 10 -206 17 -5 14 -155 1246 -155 1266 0 17 141 92
151 81 4 -3 216 -602 472 -1331z m729 1323 c11 -13 23 -90 43 -271 15 -139 25
-255 22 -258 -3 -4 -48 16 -99 43 -82 44 -93 53 -90 74 3 20 69 330 87 407 6
27 17 28 37 5z m167 -63 c50 -25 61 -36 75 -72 40 -106 314 -893 312 -895 -1
-1 -65 -10 -142 -19 -76 -8 -145 -21 -152 -26 -7 -6 -12 -21 -10 -32 2 -16 38
-38 147 -93 79 -40 146 -75 149 -77 5 -6 -161 -1216 -168 -1216 -3 0 -65 539
-139 1198 -73 658 -136 1212 -139 1230 -2 17 -2 32 2 32 4 0 33 -13 65 -30z
m-1518 -706 c43 -346 82 -636 87 -644 7 -12 41 -16 163 -20 l154 -5 -105 -66
c-68 -43 -106 -73 -108 -86 -2 -13 159 -234 493 -672 272 -360 495 -656 495
-660 1 -18 -581 -5789 -585 -5808 l-5 -23 -995 0 -995 0 6 88 c3 48 25 514 50
1036 24 523 46 952 49 954 2 3 7 -2 11 -11 17 -45 117 -72 166 -46 17 9 24 7
42 -14 11 -14 31 -30 43 -36 26 -13 102 -14 122 -2 10 6 21 1 38 -19 45 -54
131 -63 187 -19 24 19 28 19 48 5 34 -24 119 -21 152 5 47 37 56 68 56 199 l0
120 53 0 c49 0 56 -3 97 -45 50 -50 96 -70 144 -61 40 8 83 45 92 80 l6 26
393 0 c318 0 395 3 404 14 8 10 10 360 9 1312 l-3 1299 -537 3 c-296 1 -538 4
-538 7 0 3 13 141 30 308 57 583 103 1142 131 1602 18 280 18 839 1 933 -16
87 -61 159 -150 244 -102 98 -265 187 -371 204 -23 4 -44 10 -47 15 -6 10 158
138 301 233 118 79 314 188 329 183 6 -2 45 -287 87 -633z m1813 529 c174
-116 344 -301 400 -436 39 -96 84 -473 175 -1497 120 -1331 443 -5444 506
-6445 4 -49 8 -100 11 -112 l4 -23 -505 0 -505 0 0 73 c0 39 -29 1314 -65
2832 -36 1518 -65 2819 -65 2891 0 112 16 244 110 923 61 436 108 797 104 802
-3 5 -47 31 -97 56 -51 26 -85 48 -77 50 8 1 50 7 94 12 46 5 85 16 94 24 13
14 -2 64 -142 460 -86 245 -156 448 -156 451 0 13 16 4 114 -61z m-1218 -295
c135 -150 255 -277 265 -282 16 -7 27 -2 53 23 l33 32 83 -103 82 -103 -6
-235 c-22 -777 -26 -916 -26 -1024 0 -66 -4 -116 -8 -110 -5 5 -170 468 -367
1029 -197 561 -360 1026 -363 1033 -2 6 -2 12 1 12 3 0 117 -123 253 -272z
m4424 109 c0 -26 -11 -43 -64 -92 -34 -34 -102 -92 -150 -130 -80 -64 -88 -73
-102 -124 -34 -118 -87 -190 -232 -314 -36 -30 -40 -48 -16 -72 16 -16 46 -13
72 7 9 8 12 -34 12 -206 l0 -216 -62 0 c-61 0 -64 -1 -109 -46 l-46 -45 -135
187 -135 188 32 28 c30 26 32 33 37 112 8 123 36 176 156 299 154 157 329 280
605 425 111 59 137 59 137 -1z m10411 -184 c125 -128 143 -156 131 -191 -27
-78 -227 -368 -527 -765 -115 -154 -263 -351 -327 -439 -116 -160 -117 -161
-111 -207 4 -38 0 -56 -26 -104 -16 -31 -51 -85 -77 -118 -41 -53 -50 -76 -76
-177 -46 -183 -48 -192 -57 -192 -4 0 8 65 27 145 38 156 36 175 -14 175 -27
0 -51 -42 -144 -257 -30 -71 -59 -123 -66 -123 -8 0 -14 6 -14 13 0 8 32 91
70 186 59 142 69 175 60 192 -8 14 -19 19 -38 17 -23 -3 -43 -29 -137 -180
-124 -198 -120 -192 -134 -184 -7 4 28 85 90 208 111 221 118 252 56 246 -29
-3 -39 -14 -103 -116 -80 -128 -142 -202 -168 -202 -11 0 -16 5 -13 13 3 7 78
125 166 261 105 161 161 256 159 270 -3 23 -30 34 -161 62 -43 9 -77 18 -75
19 8 8 334 35 423 35 85 0 104 3 117 18 23 27 99 157 310 532 260 462 308 552
308 583 0 14 -12 40 -27 57 l-27 32 95 87 c52 47 119 109 149 138 30 29 60 53
66 53 6 0 49 -39 95 -87z m-861 -158 c129 -107 243 -195 253 -195 11 0 46 23
78 51 49 42 62 49 74 39 8 -7 15 -18 15 -25 0 -22 -564 -1024 -584 -1037 -6
-4 -17 -6 -24 -3 -14 5 -268 -11 -333 -21 l-37 -5 -16 68 c-9 37 -20 153 -26
257 l-10 189 30 34 c61 69 155 289 258 603 34 102 64 197 68 213 3 15 9 27 13
27 3 0 112 -88 241 -195z m-15234 114 c123 -38 221 -96 311 -184 100 -99 119
-138 134 -276 30 -267 -21 -1181 -127 -2279 -53 -558 -162 -1572 -212 -1966
l-7 -59 -357 -3 -356 -2 -6 72 c-29 367 -44 3520 -18 3768 36 345 144 608 323
789 68 68 200 161 229 161 10 0 49 -9 86 -21z m2144 -383 c17 -147 30 -272 28
-277 -2 -6 -25 84 -51 199 l-48 208 18 72 c9 39 18 70 20 69 1 -2 16 -124 33
-271z m4100 214 c28 -28 25 -64 -7 -90 -27 -22 -33 -22 -213 -15 -200 8 -220
13 -220 63 0 14 7 34 17 44 14 16 35 18 210 18 180 0 194 -1 213 -20z m-2861
-513 c194 -246 354 -453 356 -460 2 -7 -63 -65 -145 -130 -92 -72 -150 -125
-150 -135 0 -23 19 -42 41 -42 10 0 260 191 555 425 296 234 541 425 544 425
4 -1 289 -394 429 -592 l34 -48 -109 -117 c-194 -208 -653 -670 -818 -822
-205 -190 -309 -277 -419 -351 -94 -64 -125 -72 -176 -45 -66 34 -195 209
-291 396 l-50 97 -30 343 c-55 626 -119 1272 -140 1419 -5 36 -10 76 -10 90 0
21 2 22 14 10 8 -8 172 -217 365 -463z m2871 293 c25 -25 26 -62 0 -85 -17
-15 -40 -17 -206 -16 -103 1 -195 6 -205 12 -27 14 -34 55 -15 84 l16 25 195
0 c182 0 196 -1 215 -20z m-57 -217 c22 -20 22 -61 0 -85 -14 -16 -35 -18
-210 -18 -180 0 -194 1 -213 20 -11 11 -20 27 -20 36 0 24 19 54 40 62 10 4
101 5 202 4 148 -3 186 -7 201 -19z m8360 -190 c3 -5 8 -90 12 -190 l7 -183
-821 0 -822 0 7 178 c3 97 7 183 10 190 3 9 172 12 803 12 440 0 802 -3 804
-7z m-8422 -29 c23 -21 25 -61 2 -86 -14 -16 -35 -18 -205 -18 -187 0 -189 0
-213 25 -32 31 -31 50 1 82 l26 26 185 -6 c157 -4 187 -8 204 -23z m-931 -250
c0 -118 -6 -114 170 -114 83 0 150 -4 150 -9 0 -7 -46 -166 -121 -424 l-20
-67 -222 2 -222 3 -3 101 -3 101 106 113 c58 62 105 118 105 124 0 7 -23 45
-51 84 -55 79 -55 73 0 135 20 21 34 27 68 27 l43 0 0 -76z m9394 -196 c9 -34
8 -35 -21 -43 -47 -11 -73 -43 -73 -90 0 -54 28 -81 100 -96 53 -10 80 -29 80
-55 0 -6 -61 -105 -135 -218 -121 -186 -135 -212 -135 -251 0 -36 5 -47 32
-70 26 -22 38 -26 67 -21 l36 5 -3 -42 c-3 -35 1 -47 22 -69 34 -33 86 -44
123 -24 26 13 30 12 61 -15 45 -40 117 -41 152 -4 l24 26 13 -43 c33 -107 85
-325 105 -443 19 -111 22 -168 23 -385 0 -275 -5 -324 -61 -605 -62 -312 -187
-734 -334 -1130 -122 -326 -107 -301 -177 -309 -32 -3 -173 -11 -314 -16 -396
-15 -772 7 -1000 61 l-86 20 -156 782 c-86 430 -161 818 -168 862 -17 123 -23
717 -10 928 22 341 68 723 131 1085 16 96 30 176 30 178 0 2 375 4 834 4 l834
0 6 -22z m-18095 -560 c-1 -288 -3 -514 -5 -503 -2 11 -20 229 -39 485 -19
256 -36 482 -39 503 l-4 37 44 0 44 0 -1 -522z m556 420 l60 -101 5 -3916 5
-3916 28 -60 c15 -33 42 -75 60 -92 l31 -33 -225 0 c-214 0 -226 1 -274 24
-63 29 -131 104 -149 165 -12 39 -15 631 -15 4039 l-1 3992 207 0 208 0 60
-102z m7785 -7918 c-22 -83 -103 -166 -185 -189 -30 -9 -951 -11 -3651 -9
l-3611 3 -48 30 c-58 36 -110 101 -125 154 -7 26 -9 1263 -8 3853 l3 3816 135
-221 c89 -146 144 -226 162 -236 l28 -16 0 -2996 c0 -2909 1 -2997 19 -3020
l18 -23 3450 0 c2910 -1 3453 1 3466 13 16 12 17 243 17 3134 l0 3120 168 171
167 171 3 -3859 c1 -2544 -1 -3871 -8 -3896z m-410 4285 l0 -3045 -389 0 -390
0 -5 53 c-4 28 -33 421 -66 872 -120 1639 -346 4525 -375 4805 l-6 55 52 -80
c113 -175 202 -263 292 -286 44 -12 48 -11 119 24 124 62 336 236 633 521 72
69 131 125 133 126 1 0 2 -1370 2 -3045z m-2321 1620 c50 -25 95 -45 100 -45
5 0 41 25 81 56 40 30 74 53 77 50 5 -4 32 -1018 27 -1024 -3 -5 -678 -21
-683 -16 -2 2 22 254 53 561 31 307 56 563 56 570 0 7 45 -15 100 -47 54 -33
140 -80 189 -105z m-2845 113 c3 -13 6 -93 6 -178 0 -393 23 -1306 34 -1330
10 -23 17 -25 94 -28 l82 -3 0 -106 c0 -104 0 -106 -31 -141 -18 -20 -46 -66
-63 -102 l-31 -65 -3 -242 -4 -243 -404 0 -404 0 0 1230 0 1230 359 0 359 0 6
-22z m2086 -1208 l0 -1230 -374 0 c-287 0 -376 3 -384 13 -5 6 -56 97 -112
201 -56 105 -127 231 -158 280 -52 84 -147 193 -199 227 -20 14 -21 20 -16 97
5 69 9 82 23 82 10 0 23 6 30 14 6 9 29 162 50 348 43 368 130 1158 130 1182
0 14 55 16 505 16 l505 0 0 -1230z m-1330 -434 l0 -104 43 -33 c105 -81 156
-147 264 -344 34 -60 95 -172 137 -249 82 -147 88 -176 38 -176 -30 0 -100 66
-207 195 -67 81 -96 101 -125 85 -19 -10 -20 -21 -20 -243 0 -250 -5 -277 -52
-277 -45 0 -58 26 -58 120 0 97 -9 114 -57 108 l-28 -3 -5 -101 c-5 -111 -16
-134 -59 -134 -44 0 -51 16 -51 113 0 104 -9 127 -50 127 -39 0 -50 -23 -50
-105 0 -60 -2 -66 -25 -77 -19 -8 -31 -8 -50 0 -23 11 -25 17 -25 77 0 82 -11
105 -50 105 -35 0 -50 -23 -50 -74 0 -75 -91 -87 -105 -13 -4 18 -5 175 -3
348 3 314 3 314 29 369 14 30 44 77 67 103 l42 48 0 120 0 119 225 0 225 0 0
-104z m13340 -256 c80 -11 174 -22 210 -25 l66 -6 27 -282 c26 -276 28 -290
117 -677 l91 -395 -5 -155 c-12 -321 -58 -631 -190 -1260 -94 -454 -117 -678
-94 -925 18 -196 15 -261 -20 -405 -86 -351 -201 -552 -342 -594 -68 -20 -169
-30 -196 -19 -20 8 -19 15 73 418 l94 410 44 1535 45 1535 -50 410 c-27 225
-52 423 -55 439 -4 25 -3 28 18 22 12 -3 87 -15 167 -26z m1110 -30 c0 -5 -20
-148 -45 -317 -25 -170 -45 -319 -45 -332 0 -13 25 -83 56 -155 164 -382 260
-812 294 -1321 5 -88 14 -335 20 -550 12 -520 37 -705 128 -960 l47 -130 -1
-230 c-1 -276 -19 -388 -84 -521 -33 -69 -48 -87 -88 -113 -52 -33 -134 -64
-194 -74 l-38 -6 0 435 0 435 -375 1657 -375 1657 -20 215 c-10 118 -22 237
-25 264 l-6 48 113 -5 c62 -4 196 -3 298 2 278 12 340 12 340 1z m-14225 -500
c3 -5 1 -10 -4 -10 -6 0 -11 5 -11 10 0 6 2 10 4 10 3 0 8 -4 11 -10z m1485
-1230 c83 -591 153 -1085 155 -1097 l5 -23 -275 0 c-207 0 -275 3 -275 12 0 7
45 460 100 1007 87 859 125 1190 136 1178 1 -1 71 -486 154 -1077z m13383
-2254 c16 -32 55 -180 102 -382 41 -181 78 -337 81 -346 3 -12 -5 -22 -26 -33
-18 -9 -34 -14 -37 -11 -3 2 -35 96 -71 208 -63 191 -69 203 -93 206 -14 2
-31 -3 -37 -10 -6 -8 -21 -119 -33 -248 l-23 -235 -90 -91 c-76 -76 -107 -99
-183 -137 -87 -43 -214 -79 -321 -91 l-43 -4 6 31 c10 48 60 162 109 252 l44
80 65 7 c132 15 270 89 325 174 83 130 132 373 132 653 l0 95 34 -33 c18 -18
45 -56 59 -85z m-1384 -121 c17 -45 19 -89 22 -425 l4 -374 -33 -10 c-18 -5
-34 -7 -36 -5 -2 2 -13 97 -23 211 -12 125 -25 214 -33 223 -15 18 -44 20 -57
3 -6 -7 -43 -111 -83 -231 l-72 -219 -62 -45 c-79 -59 -162 -98 -264 -124 -68
-17 -106 -20 -216 -17 -74 2 -137 6 -141 10 -16 16 111 202 188 276 l34 33
124 3 c201 4 275 42 375 191 83 125 158 327 205 548 l12 57 19 -27 c10 -16 27
-50 37 -78z"/>
<path d="M28755 33235 c-93 -20 -139 -45 -143 -77 -5 -45 23 -51 112 -22 42
13 88 24 102 24 38 0 64 18 64 43 0 49 -29 55 -135 32z"/>
<path d="M29173 33239 c-16 -16 -17 -55 -2 -65 6 -3 39 -7 73 -8 49 -1 75 -8
124 -33 75 -40 89 -41 104 -8 14 32 -2 51 -75 90 -41 23 -68 30 -132 33 -57 3
-84 0 -92 -9z"/>
<path d="M28953 33118 c-12 -15 -49 -408 -41 -430 4 -10 35 -18 102 -27 101
-13 116 -11 116 18 0 20 -13 24 -117 37 l-53 7 6 51 c33 312 33 356 4 356 -4
0 -12 -6 -17 -12z"/>
<path d="M28770 33040 c-11 -11 -20 -28 -20 -38 0 -41 69 -69 98 -40 17 17 15
64 -4 82 -21 22 -50 20 -74 -4z"/>
<path d="M29262 33028 c-22 -22 -14 -66 14 -85 24 -15 29 -15 53 -2 51 28 35
99 -22 99 -18 0 -38 -5 -45 -12z"/>
<path d="M28863 32513 c-32 -13 9 -122 73 -193 76 -84 181 -107 277 -61 76 37
152 154 145 224 l-3 32 -240 2 c-132 1 -246 -1 -252 -4z m436 -60 c0 -5 -4
-17 -8 -27 -6 -17 -18 -19 -97 -17 -84 1 -124 -7 -206 -43 -12 -6 -23 2 -42
31 -14 21 -26 43 -26 50 0 10 43 13 190 13 105 0 190 -3 189 -7z m-61 -105
c-9 -25 -59 -51 -107 -56 -52 -5 -115 13 -105 29 17 29 221 55 212 27z"/>
<path d="M16635 32705 c-133 -30 -261 -92 -272 -134 -14 -55 35 -76 95 -41 55
33 127 59 205 76 39 8 76 19 84 25 19 16 16 53 -5 72 -21 20 -26 20 -107 2z"/>
<path d="M17100 32707 c-15 -7 -26 -22 -28 -37 -4 -43 11 -54 84 -57 96 -3
133 -18 231 -89 21 -15 25 -15 48 0 15 10 25 26 25 39 0 50 -117 126 -225 146
-75 14 -104 14 -135 -2z"/>
<path d="M17017 32552 c-10 -10 -17 -26 -17 -35 0 -10 25 -106 55 -214 61
-221 61 -219 -15 -242 -43 -13 -80 -2 -131 40 -30 24 -63 19 -79 -11 -32 -61
103 -151 204 -136 51 8 141 60 169 98 l20 27 -63 228 c-61 223 -78 263 -115
263 -6 0 -19 -8 -28 -18z"/>
<path d="M17186 32391 c-26 -29 -18 -82 17 -101 24 -13 30 -13 55 0 55 31 34
120 -28 120 -15 0 -35 -9 -44 -19z"/>
<path d="M16704 32382 c-13 -9 -34 -46 -34 -62 0 -19 48 -60 70 -60 50 0 80
79 42 113 -19 18 -59 22 -78 9z"/>
<path d="M15880 32190 c-26 -16 -5 -43 45 -57 28 -8 53 -18 57 -22 4 -4 -4
-24 -18 -45 -14 -20 -23 -44 -20 -52 10 -27 41 -14 66 27 l25 41 47 -53 c31
-34 52 -50 62 -46 23 9 20 29 -13 74 -47 65 -121 114 -199 131 -22 5 -45 6
-52 2z"/>
<path d="M16671 31861 c-28 -32 -51 -65 -51 -74 0 -21 24 -28 47 -12 18 12 20
10 31 -28 18 -67 65 -132 119 -164 43 -25 57 -28 138 -28 76 0 98 4 147 27 69
32 129 92 164 165 39 80 38 80 -201 98 -311 23 -303 22 -297 51 4 20 0 24 -21
24 -18 0 -39 -16 -76 -59z m289 -61 c201 -14 260 -21 260 -29 0 -5 -14 -27
-31 -50 -28 -39 -32 -42 -48 -27 -55 49 -189 64 -305 33 -33 -9 -63 -14 -67
-11 -9 5 -29 70 -29 92 0 8 11 11 38 7 20 -2 102 -9 182 -15z m125 -134 l30
-20 -45 -20 c-62 -27 -162 -28 -215 -1 -22 11 -40 24 -40 30 0 36 218 45 270
11z"/>
<path d="M16740 31501 c0 -25 72 -78 125 -92 57 -16 143 -5 202 24 55 28 70
49 48 67 -10 8 -25 5 -63 -14 -93 -47 -167 -44 -239 10 -39 30 -73 32 -73 5z"/>
<path d="M28247 32944 c-15 -16 -6 -41 20 -53 20 -9 23 -15 15 -23 -16 -16
-15 -68 0 -68 6 0 22 9 34 21 l22 21 17 -26 c18 -27 49 -34 60 -15 9 14 -37
82 -77 112 -36 28 -79 42 -91 31z"/>
<path d="M29919 32890 c-48 -31 -99 -94 -99 -122 0 -31 29 -28 58 8 l28 34 24
-25 c13 -14 29 -25 37 -25 18 0 17 35 -2 64 -15 23 -14 24 20 45 20 12 35 27
33 34 -8 24 -53 18 -99 -13z"/>
<path d="M10927 31063 c-4 -3 -7 -365 -7 -804 0 -717 2 -797 16 -803 9 -3 303
-6 654 -6 622 0 640 1 650 19 15 30 14 1573 -2 1589 -9 9 -169 12 -658 12
-356 0 -650 -3 -653 -7z m1233 -803 l0 -730 -580 0 -580 0 0 730 0 730 580 0
580 0 0 -730z"/>
<path d="M12342 30888 c-16 -16 -15 -33 4 -52 14 -14 96 -16 759 -16 663 0
745 2 759 16 19 19 20 36 4 52 -9 9 -192 12 -763 12 -571 0 -754 -3 -763 -12z"/>
<path d="M12342 30568 c-16 -16 -15 -33 4 -52 14 -14 96 -16 759 -16 663 0
745 2 759 16 19 19 20 36 4 52 -9 9 -192 12 -763 12 -571 0 -754 -3 -763 -12z"/>
<path d="M12342 30248 c-16 -16 -15 -33 4 -52 14 -14 96 -16 759 -16 663 0
745 2 759 16 19 19 20 36 4 52 -9 9 -192 12 -763 12 -571 0 -754 -3 -763 -12z"/>
<path d="M12342 29928 c-16 -16 -15 -33 4 -52 14 -14 96 -16 759 -16 663 0
745 2 759 16 19 19 20 36 4 52 -9 9 -192 12 -763 12 -571 0 -754 -3 -763 -12z"/>
<path d="M12342 29608 c-16 -16 -15 -33 4 -52 14 -14 96 -16 759 -16 663 0
745 2 759 16 19 19 20 36 4 52 -9 9 -192 12 -763 12 -571 0 -754 -3 -763 -12z"/>
<path d="M8040 33290 c-611 -85 -1074 -514 -1202 -1113 -31 -145 -31 -399 0
-544 92 -428 350 -768 734 -968 116 -60 216 -95 363 -127 143 -31 406 -31 552
0 489 105 890 463 1043 933 51 154 64 247 64 434 0 188 -13 280 -64 436 -133
405 -467 744 -870 882 -177 61 -451 90 -620 67z m400 -96 c464 -80 871 -439
1013 -890 44 -141 61 -247 61 -399 0 -355 -133 -675 -384 -925 -190 -190 -404
-305 -673 -361 -144 -31 -361 -30 -507 0 -530 112 -927 514 -1032 1046 -27
137 -27 343 0 481 97 490 451 880 925 1018 77 22 155 36 277 50 57 6 228 -4
320 -20z"/>
<path d="M7793 32502 c-133 -48 -217 -172 -230 -338 -19 -246 161 -513 535
-795 123 -92 93 -96 261 35 202 157 372 348 438 492 76 167 71 349 -15 474
-75 109 -175 157 -309 147 -89 -7 -149 -34 -217 -99 l-49 -47 -56 51 c-74 68
-125 89 -225 95 -62 3 -93 -1 -133 -15z"/>
<path d="M33882 28168 c-8 -8 -12 -60 -12 -170 l0 -158 -162 -2 -163 -3 -3
-152 -3 -153 170 0 171 0 2 -167 3 -168 145 0 145 0 3 167 2 168 168 2 167 3
0 150 0 150 -169 3 -168 2 3 158 c2 86 0 163 -4 170 -11 17 -278 17 -295 0z
m250 -210 l3 -163 168 -3 167 -2 0 -105 0 -105 -167 -2 -168 -3 -3 -167 -2
-168 -100 0 -100 0 -2 168 -3 167 -167 3 -168 2 0 105 0 105 168 2 167 3 3
163 2 162 100 0 100 0 2 -162z"/>
<path d="M21370 18109 c-416 -48 -814 -223 -1127 -498 -227 -199 -436 -499
-547 -787 l-28 -71 -81 -6 c-75 -6 -104 -18 -91 -39 3 -4 39 -8 80 -8 67 0 75
-2 70 -17 -261 -882 96 -1824 875 -2310 581 -363 1327 -400 1946 -98 903 440
1347 1460 1052 2420 -261 849 -1061 1433 -1951 1424 -68 -1 -157 -5 -198 -10z
m505 -94 c849 -128 1520 -811 1636 -1665 17 -122 17 -388 0 -510 -40 -290
-146 -570 -311 -817 -441 -663 -1237 -991 -2010 -828 -516 110 -953 412 -1245
864 -68 105 -167 318 -208 446 -154 480 -113 1004 113 1454 221 442 593 778
1057 955 118 45 304 91 423 105 52 6 111 13 130 15 65 8 314 -4 415 -19z"/>
<path d="M21340 16980 c-112 -20 -213 -98 -266 -205 -26 -53 -29 -70 -29 -150
0 -76 4 -99 26 -145 14 -31 41 -73 59 -93 18 -21 31 -39 29 -41 -2 -2 -193
-98 -423 -213 -466 -231 -493 -249 -548 -360 -29 -59 -32 -75 -32 -152 0 -101
26 -170 90 -241 91 -101 231 -143 359 -109 32 8 346 160 747 360 l36 19 26
-44 c105 -180 433 -296 751 -266 294 28 510 150 570 321 22 60 21 341 -1 404
-15 46 -15 47 15 93 113 176 53 417 -126 514 -49 27 -1103 302 -1193 311 -25
3 -65 2 -90 -3z m353 -144 c136 -35 250 -65 253 -68 6 -6 -82 -365 -94 -388
-5 -8 -31 -20 -58 -27 -48 -12 -50 -12 -79 17 -16 16 -57 42 -90 57 -52 24
-72 28 -150 28 -80 0 -97 -4 -158 -32 l-67 -32 -35 30 c-19 17 -46 55 -61 86
-88 179 42 389 241 392 31 1 145 -24 298 -63z m511 -518 c-2 -7 -106 -114
-230 -238 -125 -124 -215 -209 -201 -190 47 64 62 118 62 215 -1 76 -5 98 -26
142 l-26 52 51 11 c28 5 60 12 71 14 11 2 84 4 162 5 110 1 141 -2 137 -11z
m80 -20 c-4 -7 -38 -44 -75 -83 -37 -38 -76 -79 -86 -91 -10 -12 -105 -114
-212 -228 -169 -180 -228 -230 -220 -191 1 6 132 144 292 308 257 263 327 329
301 285z m196 -55 c141 -68 233 -193 215 -291 -32 -176 -258 -307 -565 -328
-99 -7 -243 6 -317 28 l-42 13 30 35 c29 33 56 62 248 265 42 44 127 136 190
203 130 140 114 135 241 75z m-1522 -399 c67 -135 121 -248 118 -252 -2 -4
-111 -60 -243 -125 -265 -131 -300 -141 -395 -113 -201 58 -266 321 -114 466
21 20 132 82 269 152 127 64 234 117 237 118 3 0 60 -110 128 -246z m731 -53
c-47 -52 -75 -69 -91 -53 -6 6 10 20 44 40 30 16 60 37 67 46 7 9 16 16 19 16
2 0 -15 -22 -39 -49z m996 -108 c-32 -111 -170 -212 -361 -265 -68 -19 -105
-22 -259 -22 -155 0 -191 3 -260 22 -113 31 -216 83 -275 138 -47 44 -97 111
-89 118 2 2 21 12 42 23 l39 19 96 -48 c154 -77 233 -93 447 -93 156 0 191 3
265 23 148 40 284 115 345 192 l20 25 3 -38 c2 -21 -4 -63 -13 -94z"/>
<path d="M21317 16856 c-44 -16 -77 -43 -77 -63 0 -25 29 -25 62 -1 27 19 45
23 96 22 54 -2 62 1 62 17 0 10 -4 20 -9 23 -22 14 -99 15 -134 2z"/>
<path d="M21503 16834 c-9 -24 8 -34 108 -60 105 -26 135 -29 145 -13 12 20
-20 36 -128 63 -127 31 -117 30 -125 10z"/>
<path d="M20553 15917 c-72 -36 -103 -57 -103 -69 0 -29 33 -21 141 32 75 38
99 55 97 68 -5 28 -29 23 -135 -31z"/>
<path d="M20349 15796 c-40 -28 -72 -90 -67 -132 4 -42 29 -36 44 11 8 24 32
56 60 82 66 59 38 90 -37 39z"/>
<path d="M13640 17174 c-133 -48 -635 -226 -840 -299 l-65 -23 -61 112 c-52
95 -64 111 -85 110 -34 -2 -1983 -1067 -1987 -1086 -3 -16 1340 -2491 1368
-2522 18 -18 27 -14 332 152 277 152 314 170 325 155 7 -9 14 -20 16 -26 3 -9
85 19 802 273 462 164 937 333 1163 413 96 34 177 68 181 77 5 10 -159 485
-472 1368 -433 1219 -482 1352 -501 1351 -12 0 -91 -25 -176 -55z m631 -1325
l466 -1314 -46 -16 c-48 -17 -1917 -681 -1983 -705 -21 -7 -38 -10 -38 -5 0 4
289 164 642 357 353 192 651 356 662 365 19 15 18 18 -43 129 -39 71 -58 115
-52 120 6 3 131 49 277 100 175 62 269 100 275 112 14 26 -6 58 -36 58 -13 0
-144 -43 -292 -95 -147 -52 -271 -94 -276 -92 -7 2 -90 147 -84 147 20 0 593
213 599 222 14 24 8 48 -15 59 -19 8 -74 -8 -321 -95 -163 -58 -301 -106 -304
-106 -8 0 -77 130 -77 144 0 5 142 59 315 120 l315 112 0 35 c0 29 -4 34 -25
37 -14 2 -167 -47 -340 -108 -172 -61 -316 -107 -320 -103 -4 4 -24 38 -44 76
-27 49 -33 68 -24 72 7 2 155 54 328 116 173 61 324 119 335 130 15 15 17 23
9 36 -24 39 -34 37 -382 -87 -189 -67 -345 -120 -346 -118 -25 33 -76 142 -70
148 5 5 158 61 339 125 182 64 340 123 353 131 36 24 23 74 -20 74 -9 0 -176
-56 -370 -125 -193 -69 -355 -122 -358 -117 -4 4 -24 37 -44 75 l-37 67 25 10
c14 5 180 64 368 131 189 67 349 126 356 131 19 16 14 56 -8 68 -15 8 -93 -16
-401 -125 -210 -75 -383 -134 -384 -133 -15 20 -78 148 -75 151 3 2 142 52
310 112 469 165 470 166 481 186 13 25 -5 59 -31 59 -10 0 -128 -39 -262 -86
-134 -47 -311 -110 -395 -140 l-152 -53 -42 75 c-22 41 -39 76 -38 78 2 1 186
67 409 145 223 79 411 148 418 154 19 15 10 50 -16 63 -19 9 -83 -10 -440
-137 -229 -82 -418 -145 -420 -141 -2 4 -43 79 -91 167 -49 88 -84 161 -80
163 117 46 1017 360 1024 358 5 -1 219 -594 476 -1317z m-1021 -52 c366 -672
665 -1226 665 -1231 0 -10 -1891 -1045 -1910 -1046 -13 0 -1350 2453 -1338
2458 4 1 436 236 958 522 523 285 952 519 955 519 3 0 304 -549 670 -1222z"/>
<path d="M11810 16171 c-443 -242 -809 -447 -815 -455 -15 -24 7 -51 41 -51
19 0 294 144 799 419 424 230 787 429 808 443 31 19 38 29 35 51 -7 62 -17 57
-868 -407z"/>
<path d="M11940 15945 l-815 -444 0 -33 c0 -30 3 -33 30 -33 40 0 1643 872
1651 898 6 19 -21 57 -40 57 -6 0 -378 -200 -826 -445z"/>
<path d="M12062 15717 c-843 -459 -846 -461 -812 -502 7 -8 20 -15 29 -15 9 0
383 200 831 444 850 462 845 459 810 502 -7 7 -20 14 -29 14 -9 0 -382 -199
-829 -443z"/>
<path d="M12195 15494 c-440 -240 -808 -444 -819 -454 -22 -21 -14 -56 15 -65
20 -7 60 14 1224 648 l430 234 0 34 c0 29 -4 34 -25 37 -17 1 -278 -136 -825
-434z"/>
<path d="M12325 15269 c-434 -236 -800 -437 -812 -445 -29 -19 -30 -59 -2 -74
22 -12 -16 -32 1223 643 237 128 435 241 440 250 15 23 -4 51 -35 55 -16 1
-291 -144 -814 -429z"/>
<path d="M12440 15036 c-448 -244 -819 -451 -825 -460 -13 -21 5 -50 34 -54
14 -2 300 148 799 419 427 233 794 433 815 446 42 26 51 65 18 83 -11 5 -21
10 -23 10 -2 0 -370 -200 -818 -444z"/>
<path d="M12560 14806 l-815 -444 0 -33 c0 -31 3 -34 30 -34 20 0 284 139 825
434 437 238 803 440 813 448 9 9 17 22 17 29 0 16 -28 44 -43 44 -7 0 -379
-200 -827 -444z"/>
<path d="M12682 14577 c-844 -459 -846 -461 -812 -502 7 -8 20 -15 29 -15 9 0
383 200 831 444 847 462 844 460 810 502 -7 7 -20 14 -29 14 -9 0 -382 -199
-829 -443z"/>
<path d="M29720 16750 c-820 -80 -1440 -796 -1397 -1610 22 -396 173 -735 452
-1015 221 -222 475 -361 778 -427 138 -30 464 -32 600 -5 474 96 879 403 1094
830 256 511 203 1139 -135 1600 -194 265 -473 465 -787 562 -189 59 -417 84
-605 65z m451 -108 c589 -137 1016 -578 1131 -1167 27 -139 29 -366 5 -500
-37 -208 -118 -409 -234 -584 -78 -118 -271 -310 -392 -390 -167 -111 -354
-187 -556 -227 -134 -27 -406 -25 -540 4 -309 67 -533 188 -750 406 -137 138
-209 240 -289 407 -97 202 -139 389 -139 619 0 279 71 534 213 765 211 343
566 592 955 668 125 25 130 25 325 22 140 -3 206 -8 271 -23z"/>
<path d="M29600 15820 l0 -340 -340 0 -340 0 0 -265 0 -265 340 0 340 0 2
-342 3 -343 263 -3 262 -2 0 345 0 345 340 0 340 0 0 265 0 265 -340 0 -340 0
0 340 0 340 -265 0 -265 0 0 -340z"/>
<path d="M19138 16723 c-10 -2 -18 -13 -18 -24 0 -17 8 -19 78 -19 112 0 152
9 152 31 0 17 -9 19 -97 18 -54 -1 -106 -3 -115 -6z"/>
<path d="M18782 16703 c-38 -4 -43 -7 -40 -26 3 -21 7 -22 98 -19 115 4 130 8
130 33 0 17 -7 19 -72 17 -40 -1 -92 -3 -116 -5z"/>
<path d="M18464 16680 c-45 -4 -86 -10 -93 -14 -15 -10 -14 -33 2 -38 19 -7
211 12 221 22 12 12 -12 40 -33 39 -9 -1 -52 -5 -97 -9z"/>
<path d="M18090 16648 c-101 -10 -117 -17 -106 -43 6 -18 20 -17 179 1 50 6
72 28 46 45 -8 5 -16 8 -19 7 -3 0 -48 -5 -100 -10z"/>
<path d="M17690 16608 c-75 -9 -99 -23 -77 -45 9 -9 37 -9 117 0 94 11 105 14
105 32 0 24 -34 27 -145 13z"/>
<path d="M23666 16613 c-3 -3 -6 -14 -6 -23 0 -19 22 -24 153 -36 l79 -7 -4
24 c-3 22 -9 25 -68 31 -36 4 -84 9 -106 12 -23 3 -44 2 -48 -1z"/>
<path d="M17315 16566 c-61 -8 -81 -15 -83 -28 -5 -27 13 -29 123 -17 100 11
105 13 105 35 0 28 -13 29 -145 10z"/>
<path d="M24042 16549 c3 -22 10 -24 107 -36 106 -14 129 -9 118 20 -6 15 -40
22 -155 33 -73 7 -74 7 -70 -17z"/>
<path d="M16935 16519 c-76 -11 -85 -15 -85 -34 0 -9 6 -18 13 -20 19 -8 207
21 219 33 30 30 -26 38 -147 21z"/>
<path d="M24414 16508 c-13 -20 23 -34 122 -47 70 -9 99 -10 107 -2 20 20 -15
38 -96 50 -98 14 -124 14 -133 -1z"/>
<path d="M16560 16466 c-66 -10 -75 -14 -78 -33 -4 -27 5 -28 111 -13 111 16
117 18 117 40 0 23 -28 24 -150 6z"/>
<path d="M24797 16464 c-4 -4 -7 -15 -7 -24 0 -13 22 -20 107 -33 107 -17 132
-14 120 16 -7 18 -206 55 -220 41z"/>
<path d="M16205 16412 c-88 -15 -100 -19 -100 -37 0 -18 6 -20 55 -17 30 1 82
8 115 15 49 10 60 16 60 32 0 26 -11 26 -130 7z"/>
<path d="M25163 16394 c-9 -25 7 -32 115 -50 89 -15 105 -15 113 -3 14 24 -11
36 -112 53 -117 19 -108 19 -116 0z"/>
<path d="M15865 16354 c-38 -7 -85 -16 -102 -19 -24 -4 -33 -11 -33 -25 0 -28
8 -29 85 -15 39 7 87 16 108 19 32 6 38 11 35 28 -4 28 -10 29 -93 12z"/>
<path d="M25534 16329 c-13 -21 22 -37 119 -54 69 -12 102 -14 109 -7 24 24
-2 39 -94 55 -111 20 -125 21 -134 6z"/>
<path d="M15510 16290 c-19 -4 -61 -13 -92 -20 -46 -9 -58 -15 -58 -30 0 -10
3 -21 8 -24 4 -2 55 5 112 17 91 19 105 25 105 42 0 23 -22 28 -75 15z"/>
<path d="M25912 16248 c3 -20 14 -25 103 -44 104 -22 125 -21 125 2 0 19 -28
30 -124 49 -103 20 -108 20 -104 -7z"/>
<path d="M15077 16201 c-85 -19 -101 -29 -87 -51 7 -12 22 -11 104 4 98 19
134 35 122 54 -10 16 -45 14 -139 -7z"/>
<path d="M26282 16168 c3 -19 17 -25 107 -45 104 -24 130 -22 118 10 -3 9 -42
23 -97 36 -118 27 -132 27 -128 -1z"/>
<path d="M14757 16128 c-40 -11 -57 -32 -40 -49 7 -7 27 -6 59 2 54 13 80 31
70 48 -8 13 -37 13 -89 -1z"/>
<path d="M26646 16093 c-10 -24 1 -30 97 -53 100 -23 123 -25 133 -9 12 19
-14 32 -108 56 -113 27 -114 27 -122 6z"/>
<path d="M27013 16004 c-9 -23 4 -30 110 -59 98 -26 117 -26 117 1 0 18 -24
28 -127 54 -98 24 -92 24 -100 4z"/>
<path d="M27382 15898 c2 -18 19 -26 103 -49 88 -25 101 -27 114 -14 22 22 6
32 -95 60 -112 31 -126 32 -122 3z"/>
<path d="M27750 15805 c-17 -21 -6 -30 59 -49 58 -17 71 -15 71 13 0 12 -15
22 -53 34 -65 21 -62 21 -77 2z"/>
<path d="M16824 12839 c-157 -15 -343 -71 -437 -131 -65 -41 -122 -124 -153
-222 -33 -103 -43 -307 -22 -428 l14 -78 -906 0 c-877 0 -909 -1 -986 -20
-182 -47 -324 -186 -378 -369 -15 -50 -16 -431 -16 -4162 l0 -4107 21 -66 c11
-38 42 -100 72 -144 63 -92 161 -168 264 -204 l68 -23 2055 0 2055 0 64 23
c159 57 278 176 337 337 18 48 19 137 22 2278 l2 2227 28 -6 c15 -4 59 -16 97
-28 l70 -22 3 -754 c2 -588 5 -756 15 -762 6 -4 449 -8 982 -8 742 0 974 3
983 12 9 9 12 285 12 1180 l0 1168 44 0 c31 0 46 5 50 16 3 9 6 143 6 299 0
230 -3 285 -14 294 -19 16 -282 67 -468 90 -410 53 -786 53 -1196 0 -185 -23
-449 -74 -468 -90 -10 -8 -14 -50 -16 -172 l-3 -161 -55 -32 c-30 -18 -58 -33
-62 -34 -4 0 -9 636 -10 1413 l-3 1412 -22 60 c-48 125 -139 229 -252 288
-115 61 -111 60 -566 66 l-420 6 3 150 c5 184 -11 275 -69 393 -91 186 -253
285 -510 312 -110 11 -116 11 -235 -1z m-208 -369 c301 -84 537 -104 734 -62
52 11 103 23 113 27 14 6 22 -3 42 -47 35 -77 46 -149 43 -275 l-3 -108 -127
-5 c-121 -5 -128 -6 -169 -35 -25 -18 -53 -50 -67 -78 l-25 -47 -57 0 c-54 0
-58 2 -70 30 -17 41 -81 97 -127 109 -21 6 -90 11 -153 11 l-115 1 50 27 c41
22 63 26 125 26 41 0 93 -4 115 -8 51 -10 75 10 57 49 -15 32 -75 49 -172 48
-83 -1 -145 -19 -197 -59 -38 -29 -42 -56 -11 -78 21 -15 21 -16 3 -16 -26 0
-84 -35 -108 -66 -15 -20 -27 -24 -74 -24 -40 0 -53 3 -49 13 2 6 25 73 49
147 55 165 80 282 81 377 1 40 2 73 3 73 2 0 51 -13 109 -30z m924 -582 c0
-35 -3 -107 -7 -160 l-6 -98 -99 0 c-110 0 -139 10 -181 60 -48 56 -48 144 0
201 40 47 75 58 191 59 l102 0 0 -62z m-614 22 c37 -23 74 -91 74 -136 0 -53
-40 -117 -90 -142 -41 -21 -55 -23 -177 -20 -114 3 -135 6 -159 24 -47 35 -67
70 -71 126 -5 63 17 112 67 146 30 20 44 22 178 22 128 0 148 -2 178 -20z
m-747 -20 c-135 -16 -219 -96 -219 -207 l0 -23 -769 0 -769 0 -53 -28 c-39
-20 -62 -41 -84 -77 l-30 -48 0 -3836 c0 -3553 1 -3838 17 -3866 21 -39 64
-82 103 -103 28 -16 189 -17 2024 -20 1384 -1 2005 1 2033 8 47 13 109 67 134
118 18 36 19 113 22 2036 2 1581 5 1997 15 1994 6 -3 58 -18 114 -34 l103 -29
0 -2204 c0 -2402 3 -2256 -55 -2370 -36 -72 -115 -145 -202 -188 l-77 -38
-2065 0 -2066 0 -69 33 c-131 62 -213 154 -247 279 -18 66 -19 179 -19 4143 0
3929 1 4078 18 4142 49 174 188 291 382 321 14 3 430 4 925 4 495 0 870 -3
834 -7z m2276 -5 c41 -8 99 -27 128 -42 109 -59 200 -180 226 -301 8 -38 11
-455 11 -1456 l0 -1403 -47 -34 c-27 -18 -69 -53 -96 -78 -26 -24 -49 -42 -51
-40 -2 2 -11 21 -20 43 -14 35 -16 178 -16 1455 0 932 -4 1431 -11 1461 -15
66 -53 115 -112 145 l-51 25 -286 0 -287 0 5 55 c4 45 0 65 -23 110 -14 30
-31 55 -36 55 -5 0 -9 5 -9 10 0 17 583 13 675 -5z m-771 -45 c20 -7 26 -16
26 -40 0 -20 -5 -30 -15 -30 -9 0 -29 -7 -45 -15 l-30 -16 0 56 c0 60 9 66 64
45z m-1232 -74 c3 -63 8 -81 33 -117 17 -23 50 -53 74 -66 40 -21 57 -23 190
-23 143 0 147 1 197 30 41 23 58 41 78 82 14 28 26 67 26 85 0 25 4 33 18 33
15 0 27 -24 59 -117 42 -122 43 -144 8 -173 -24 -20 -93 -15 -127 10 -45 33
-80 22 -58 -20 15 -28 64 -51 124 -56 63 -6 104 16 131 72 18 38 16 64 -11
139 -6 17 -3 16 22 -6 55 -50 85 -59 199 -59 l105 0 0 -41 c0 -22 -7 -122 -16
-222 -19 -221 -26 -241 -138 -352 -191 -189 -401 -225 -641 -111 -122 58 -259
176 -290 251 -14 33 -34 186 -65 487 -27 270 -30 248 29 248 l49 0 4 -74z
m-200 32 c10 -9 17 -37 21 -85 l6 -73 -75 41 c-75 42 -104 45 -104 11 0 -12
16 -26 45 -40 47 -23 56 -41 30 -62 -8 -7 -15 -21 -15 -31 0 -28 37 -24 64 7
20 24 24 25 44 13 17 -11 22 -23 22 -57 0 -49 8 -47 -91 -21 -49 12 -99 47
-126 88 -31 46 -32 127 -2 165 33 42 148 70 181 44z m905 -30 c-3 -8 -6 -5 -6
6 -1 11 2 17 5 13 3 -3 4 -12 1 -19z m590 -105 c-21 -38 -55 -69 -100 -88 -47
-19 -49 -2 -2 21 42 20 92 74 102 112 7 24 8 25 11 5 2 -12 -3 -34 -11 -50z
m-74 22 c-19 -25 -38 -32 -48 -15 -3 5 7 16 22 24 40 22 46 19 26 -9z m-1679
-134 c8 -15 31 -42 51 -59 59 -52 105 -71 236 -97 25 -4 27 -9 33 -77 17 -166
35 -240 73 -297 21 -29 59 -72 85 -95 l48 -41 0 -107 c0 -91 -3 -112 -21 -142
-12 -20 -27 -36 -33 -36 -7 0 -53 -28 -102 -63 -49 -35 -125 -78 -169 -96 -95
-39 -213 -102 -344 -184 -208 -129 -299 -220 -349 -347 -177 -449 -370 -2210
-536 -4880 -52 -833 -50 -788 -36 -805 10 -12 47 -15 218 -15 l205 0 -6 -72
c-3 -40 -11 -139 -18 -220 l-12 -148 -450 0 -449 0 -39 39 -39 39 0 3816 c0
3445 2 3820 16 3847 9 18 32 38 57 50 40 18 77 19 804 19 l762 0 15 -29z
m2432 9 c80 -39 74 73 72 -1393 l-3 -1306 -248 657 c-137 361 -258 676 -269
700 -40 82 -180 185 -328 242 -19 8 -39 19 -45 26 -20 24 -164 124 -179 124
-8 0 -28 26 -45 57 -24 43 -31 69 -31 111 0 52 1 55 56 104 56 52 130 149 152
201 10 24 42 297 42 362 0 18 12 27 61 45 34 12 78 37 98 56 l36 33 294 1
c277 0 297 -1 337 -20z m-1636 -824 c149 -48 275 -44 414 14 l68 29 -4 -77
c-4 -70 -14 -100 -114 -344 -60 -147 -113 -268 -118 -269 -5 0 -103 120 -217
267 l-209 269 0 97 0 96 53 -29 c28 -16 86 -40 127 -53z m567 -583 c-15 -174
-29 -319 -32 -321 -2 -2 -53 35 -114 83 l-110 86 18 47 c10 26 57 142 105 258
47 117 91 225 97 240 l11 29 26 -53 26 -52 -27 -317z m-582 124 c114 -148 208
-275 209 -282 1 -19 -186 -228 -195 -218 -11 12 -266 653 -273 688 -7 33 29
105 43 89 5 -5 102 -130 216 -277z m-230 -421 c59 -323 104 -590 102 -592 -5
-5 -117 180 -117 194 0 5 9 17 20 27 39 35 12 75 -50 75 l-38 0 -76 129 -77
129 11 238 c16 371 14 356 63 392 37 27 43 28 49 14 4 -9 55 -282 113 -606z
m976 587 c12 -13 36 -152 88 -513 39 -273 71 -505 71 -516 0 -19 -6 -20 -96
-20 -81 1 -98 -2 -107 -16 -14 -21 -8 -28 115 -161 l87 -93 -34 -110 c-18 -60
-50 -162 -70 -227 l-36 -118 -41 3 -41 3 2 865 c1 476 4 882 8 902 4 31 8 36
22 29 9 -5 23 -17 32 -28z m254 -138 c73 -49 133 -116 139 -157 11 -64 129
-1539 124 -1544 -5 -4 -387 42 -409 49 -4 1 24 103 62 227 38 124 69 238 69
253 0 22 -16 45 -65 96 -36 37 -65 71 -65 74 0 4 29 7 65 7 53 0 67 3 72 17 4
10 -26 247 -65 528 -40 280 -72 513 -72 517 0 11 87 -29 145 -67z m-1530 -142
c-4 -115 -9 -211 -11 -214 -2 -4 -36 26 -75 66 -72 75 -149 124 -227 145 -23
6 -40 15 -37 20 15 24 318 189 349 190 5 0 5 -91 1 -207z m-318 -88 c67 -20
156 -87 218 -165 27 -34 210 -328 405 -654 l355 -591 805 -107 c443 -58 806
-107 808 -107 1 -1 2 -98 2 -216 l0 -214 -192 5 c-106 3 -501 11 -878 19 -740
15 -733 14 -807 71 -37 28 -281 304 -493 559 -306 367 -487 620 -542 759 -31
77 -32 88 -33 211 0 117 3 139 29 220 26 79 37 97 85 145 78 78 139 94 238 65z
m751 -255 c57 -142 70 -165 90 -168 13 -2 31 3 41 12 16 14 21 6 80 -112 l63
-128 -16 -264 c-9 -146 -16 -282 -16 -302 0 -21 -3 -38 -7 -38 -11 0 -126 197
-135 229 -4 15 -43 224 -88 466 -44 242 -82 451 -85 465 -6 33 -5 31 73 -160z
m1605 -635 c124 -324 228 -597 231 -605 4 -9 -2 -20 -14 -28 -16 -10 -51 -8
-187 9 -93 12 -173 27 -179 33 -10 10 -88 907 -99 1146 -5 98 -4 103 9 70 7
-19 115 -300 239 -625z m-913 8 l0 -503 -35 0 c-43 0 -39 -26 -65 403 l-21
337 38 144 c36 142 37 144 60 133 l23 -10 0 -504z m-1815 159 c92 -195 434
-634 920 -1182 109 -123 178 -172 263 -186 42 -6 42 -7 36 -43 -3 -20 -142
-848 -308 -1841 l-302 -1805 -582 -3 -581 -2 5 47 c2 27 11 170 19 318 90
1590 245 3416 365 4282 32 225 86 556 96 583 4 9 12 -8 20 -40 8 -30 30 -88
49 -128z m5015 -187 c147 -16 374 -50 488 -75 l52 -12 0 -234 0 -234 -1001 0
-1002 0 52 54 c41 44 51 62 51 89 0 47 -33 87 -71 87 l-29 0 0 119 0 119 53
12 c175 38 492 80 712 94 126 8 547 -4 695 -19z m-1521 -492 c-124 -129 -132
-138 -125 -161 4 -11 13 -23 21 -26 8 -3 131 3 272 14 142 11 274 19 293 19
l35 -1 -45 -14 c-25 -8 -117 -28 -205 -45 -88 -17 -166 -36 -172 -41 -17 -14
-16 -43 1 -57 9 -8 94 -16 237 -22 123 -5 224 -11 226 -13 4 -4 -79 -12 -285
-27 -164 -12 -192 -20 -192 -54 0 -7 6 -20 13 -27 13 -13 147 -41 337 -72 l85
-14 -202 -1 c-169 -1 -204 -4 -217 -17 -48 -47 6 -76 244 -129 41 -9 80 -18
85 -20 29 -9 -58 -3 -200 16 -88 11 -241 24 -340 28 -192 8 -220 15 -277 69
-28 26 -28 26 -28 165 l0 140 83 81 c45 45 113 104 150 130 74 53 266 165 282
166 5 0 -29 -39 -76 -87z m1959 -440 l-3 -288 -722 0 c-493 0 -723 3 -723 10
0 6 -9 27 -19 48 -18 36 -18 37 0 37 55 0 105 58 94 109 -7 33 -29 56 -65 69
-23 9 -22 10 16 16 126 22 131 163 7 182 l-43 6 32 17 c19 9 39 30 47 49 l15
32 683 0 683 0 -2 -287z m-2109 -304 c101 -4 187 -11 193 -17 11 -11 7 -127
-5 -126 -4 0 -122 34 -262 74 -231 68 -253 76 -240 90 8 9 15 22 15 28 0 6 24
0 58 -16 52 -24 71 -27 241 -33z m-1514 31 c6 -10 145 -1380 145 -1432 l0 -28
-455 0 -455 0 1 23 c1 43 237 1412 238 1377 0 -19 -10 -204 -23 -410 -13 -206
-21 -380 -17 -386 13 -24 307 -234 328 -234 15 0 55 38 134 126 l113 127 -3
71 c-1 39 -13 226 -25 416 -13 190 -21 348 -19 353 6 10 31 9 38 -3z m711 -12
c3 -4 294 -3524 294 -3555 l0 -23 -279 0 -280 0 -6 43 c-3 23 -82 812 -175
1752 -93 941 -172 1730 -176 1754 l-6 44 313 -6 c172 -4 313 -8 315 -9z m226
-28 c62 -17 128 -35 146 -41 l32 -11 0 -1999 c0 -2184 4 -2031 -56 -2078 -20
-16 -41 -21 -85 -21 l-59 0 0 30 c0 40 -18 359 -25 433 l-5 57 94 0 c69 0 97
4 106 14 9 12 -19 391 -134 1778 -80 970 -149 1787 -152 1816 -8 63 -13 62
138 22z m1133 -41 c22 1 379 4 793 7 l752 4 0 -485 0 -485 -915 0 -915 0 0
463 c0 254 3 473 7 486 l6 24 116 -8 c64 -5 134 -7 156 -6z m1550 -1320 l0
-304 -912 -3 -913 -2 0 307 0 308 913 -1 912 -2 0 -303z m-3961 -2001 l162
-783 -300 -3 c-164 -1 -300 -1 -301 0 -4 5 270 1576 274 1572 2 -2 76 -356
165 -786z"/>
<path d="M17327 12149 c-53 -12 -94 -36 -112 -63 -33 -50 21 -84 73 -46 42 31
100 36 162 14 56 -20 83 -13 88 23 4 28 -26 50 -93 68 -66 17 -65 17 -118 4z"/>
<path d="M17000 12079 c0 -11 -5 -29 -11 -41 -14 -27 -1 -38 17 -14 16 23 19
76 4 76 -5 0 -10 -9 -10 -21z"/>
<path d="M17167 12074 c-15 -15 26 -74 51 -74 12 0 10 5 -6 23 -12 13 -22 28
-22 35 0 13 -15 24 -23 16z"/>
<path d="M17342 11844 c-27 -19 -28 -45 -2 -69 17 -15 24 -16 45 -7 32 15 35
66 6 82 -25 13 -22 13 -49 -6z"/>
<path d="M16848 11829 c-36 -21 -16 -79 27 -79 44 0 63 60 26 80 -24 12 -31
12 -53 -1z"/>
<path d="M17271 11327 c-111 -115 -285 -117 -444 -5 -15 11 -34 17 -42 14 -69
-26 110 -139 244 -152 104 -11 256 54 307 130 34 53 -16 63 -65 13z"/>
<path d="M19245 9048 c-3 -8 -4 -99 -3 -203 3 -182 4 -190 23 -190 19 0 20 7
20 200 0 182 -2 200 -18 203 -9 2 -19 -3 -22 -10z"/>
<path d="M19405 9048 c-3 -8 -4 -99 -3 -203 3 -182 4 -190 23 -190 19 0 20 7
20 200 0 182 -2 200 -18 203 -9 2 -19 -3 -22 -10z"/>
<path d="M19565 9048 c-3 -8 -4 -99 -3 -203 3 -182 4 -190 23 -190 19 0 20 7
20 200 0 182 -2 200 -18 203 -9 2 -19 -3 -22 -10z"/>
<path d="M19725 9048 c-3 -8 -4 -99 -3 -203 3 -182 4 -190 23 -190 19 0 20 7
20 200 0 182 -2 200 -18 203 -9 2 -19 -3 -22 -10z"/>
<path d="M19885 9048 c-3 -8 -4 -99 -3 -203 3 -182 4 -190 23 -190 19 0 20 7
20 200 0 182 -2 200 -18 203 -9 2 -19 -3 -22 -10z"/>
<path d="M20045 9048 c-3 -8 -4 -99 -3 -203 3 -182 4 -190 23 -190 19 0 20 7
20 200 0 182 -2 200 -18 203 -9 2 -19 -3 -22 -10z"/>
<path d="M20205 9048 c-3 -8 -4 -99 -3 -203 3 -182 4 -190 23 -190 19 0 20 7
20 200 0 182 -2 200 -18 203 -9 2 -19 -3 -22 -10z"/>
<path d="M20365 9048 c-3 -8 -4 -99 -3 -203 3 -182 4 -190 23 -190 19 0 20 7
20 200 0 182 -2 200 -18 203 -9 2 -19 -3 -22 -10z"/>
<path d="M20525 9048 c-3 -8 -4 -99 -3 -203 3 -182 4 -190 23 -190 19 0 20 7
20 200 0 182 -2 200 -18 203 -9 2 -19 -3 -22 -10z"/>
<path d="M20685 9048 c-3 -8 -4 -99 -3 -203 3 -182 4 -190 23 -190 19 0 20 7
20 200 0 182 -2 200 -18 203 -9 2 -19 -3 -22 -10z"/>
<path d="M20845 9048 c-3 -8 -4 -99 -3 -203 3 -182 4 -190 23 -190 19 0 20 7
20 200 0 182 -2 200 -18 203 -9 2 -19 -3 -22 -10z"/>
<path d="M21005 9048 c-3 -8 -4 -99 -3 -203 3 -182 4 -190 23 -190 19 0 20 7
20 200 0 182 -2 200 -18 203 -9 2 -19 -3 -22 -10z"/>
<path d="M19940 7650 l0 -90 -90 0 -90 0 0 -120 0 -120 90 0 90 0 0 -90 0 -90
120 0 120 0 0 90 0 89 93 3 92 3 3 118 3 117 -96 0 -95 0 0 90 0 90 -120 0
-120 0 0 -90z"/>
<path d="M25580 12498 c-36 -5 -131 -9 -211 -8 -173 1 -262 -15 -350 -61 -33
-18 -73 -48 -88 -68 -77 -98 -122 -243 -123 -396 -1 -114 11 -152 69 -224 28
-34 34 -46 23 -49 -29 -9 -86 -79 -98 -119 -17 -58 -14 -132 7 -178 17 -38
101 -125 120 -125 5 0 12 -19 16 -42 3 -24 9 -51 11 -60 5 -17 -12 -18 -269
-18 -311 0 -369 -9 -500 -77 -107 -55 -223 -174 -275 -284 -71 -148 -72 -156
-72 -883 l0 -645 -32 -5 c-18 -3 -339 -35 -713 -70 -441 -42 -681 -68 -683
-75 -2 -7 -34 17 -72 52 -85 81 -174 145 -314 224 -139 79 -187 82 -216 14
-18 -45 -5 -77 57 -142 l56 -59 -54 0 c-30 1 -128 7 -219 14 -189 15 -218 10
-239 -43 -18 -43 0 -86 48 -111 l36 -19 -41 -1 c-59 0 -94 -30 -94 -79 0 -49
32 -80 96 -90 27 -5 39 -9 26 -10 -33 -1 -82 -53 -82 -86 0 -38 50 -85 90 -85
l31 0 -20 -26 c-12 -15 -21 -39 -21 -54 0 -15 9 -39 21 -54 26 -33 54 -33 279
-5 91 11 242 24 336 28 168 7 172 8 229 40 41 23 61 29 68 22 6 -6 46 -11 89
-11 53 0 79 -4 85 -13 4 -8 37 -33 73 -57 78 -51 74 -49 69 -54 -2 -2 -103
-16 -224 -31 -121 -14 -233 -31 -248 -37 -91 -35 -68 -148 33 -167 l45 -8 -45
-8 c-89 -16 -129 -97 -75 -150 25 -26 37 -29 115 -27 25 1 38 -1 30 -4 -45
-16 -64 -32 -77 -61 -28 -69 37 -136 113 -117 27 7 27 7 11 -17 -39 -55 -3
-139 59 -139 16 0 132 33 258 74 127 41 271 82 319 91 131 24 193 50 248 105
54 54 85 66 110 44 15 -13 37 -11 205 16 104 16 199 32 212 35 l22 5 0 -2372
c0 -2035 2 -2383 15 -2443 8 -39 35 -112 62 -165 82 -165 229 -285 413 -337
62 -17 147 -18 1800 -18 1649 0 1738 1 1799 18 127 36 261 121 336 213 63 78
122 203 140 297 13 69 15 539 15 3663 0 3207 -2 3593 -16 3662 -48 241 -240
441 -480 502 -73 19 -113 20 -742 20 -629 0 -664 1 -657 18 59 136 59 139 60
322 0 188 -12 273 -61 420 -70 209 -205 394 -352 484 -150 91 -391 133 -592
104z m-118 -419 c37 -88 121 -145 308 -209 196 -68 209 -77 251 -165 32 -67
36 -100 14 -109 -8 -3 -55 -35 -104 -71 -50 -37 -99 -65 -112 -65 -31 0 -468
76 -474 82 -3 3 2 27 10 54 22 72 20 96 -7 92 -18 -2 -26 -17 -45 -78 l-23
-75 -121 -26 -122 -26 7 94 c9 115 12 126 38 117 10 -3 36 2 56 12 20 10 64
20 97 22 33 2 66 9 73 14 20 17 14 56 -10 69 -27 15 -112 5 -179 -20 l-51 -20
7 42 c19 111 79 256 137 328 38 47 107 97 167 119 l46 18 8 -75 c4 -42 17 -98
29 -124z m-506 -526 c-3 -38 -9 -94 -13 -126 l-6 -58 -24 22 c-53 50 -54 149
-3 201 45 45 54 38 46 -39z m1299 -27 c43 -43 50 -120 17 -182 -31 -58 -152
-107 -244 -97 -42 4 -57 2 -67 -11 -17 -20 0 -66 24 -66 8 0 15 -3 15 -6 0
-10 -58 -123 -82 -157 l-23 -34 0 210 0 209 80 59 c107 78 150 99 208 99 37 0
53 -5 72 -24z m-467 -151 l24 -6 -4 -227 c-3 -139 -9 -238 -16 -254 -22 -54
-206 -122 -327 -122 -89 0 -126 19 -228 114 -131 123 -189 230 -206 385 -15
128 -18 125 145 160 l139 31 225 -38 c124 -21 236 -41 248 -43z m-781 -353
c13 -26 41 -71 63 -100 22 -29 40 -55 40 -57 0 -3 -116 -5 -259 -5 -142 0
-283 -4 -312 -10 -196 -36 -366 -212 -398 -410 -7 -38 -11 -248 -11 -510 l0
-445 -105 -105 -106 -105 4 655 c2 360 7 671 11 690 49 218 240 403 456 440
25 4 169 8 320 8 l275 1 22 -47z m2940 19 c172 -63 309 -204 364 -373 l24 -73
0 -3630 c0 -3495 -1 -3632 -18 -3690 -46 -149 -160 -286 -291 -350 -142 -70
-10 -65 -1893 -65 -1189 0 -1718 3 -1755 11 -29 6 -89 28 -134 49 -139 67
-248 193 -301 350 -17 53 -18 152 -21 2451 l-2 2396 77 13 c43 6 90 14 106 17
l27 6 0 -2079 c0 -1355 4 -2102 10 -2144 15 -93 70 -200 140 -270 53 -53 97
-79 235 -141 12 -6 685 -8 1620 -7 l1600 3 58 24 c181 72 299 219 328 406 6
36 8 1327 7 3285 l-3 3225 -22 59 c-59 154 -160 257 -311 318 l-57 23 -716 5
-716 5 81 102 81 103 710 -3 710 -3 62 -23z m-2685 -296 c26 -17 48 -37 49
-45 7 -72 3 -132 -9 -139 -7 -4 -41 -50 -75 -102 l-62 -94 -170 -97 -170 -98
-303 -302 -303 -303 3 450 3 450 32 66 c57 116 186 217 304 237 23 4 180 7
348 7 l306 0 47 -30z m2473 16 c69 -23 116 -51 168 -99 60 -57 87 -98 116
-177 l21 -60 -2 -3260 -3 -3260 -34 -67 c-58 -117 -175 -209 -301 -237 -28 -6
-286 -10 -668 -11 -591 0 -623 1 -618 17 13 46 112 621 165 958 46 296 83 573
96 725 3 36 8 74 10 85 2 11 7 63 11 115 3 52 8 97 9 100 5 8 19 330 19 425 0
397 -87 846 -269 1390 -41 121 -101 288 -135 370 -34 83 -65 164 -69 180 -10
39 -5 190 8 285 6 41 22 156 36 255 67 486 76 552 80 580 4 22 21 43 61 75 86
69 226 220 259 280 28 51 30 63 30 155 0 161 -56 302 -176 446 -32 39 -67 61
-221 138 -101 51 -189 98 -196 105 -18 18 -39 158 -35 233 2 34 10 80 18 102
14 41 64 120 94 150 15 15 89 16 751 16 585 -1 743 -4 775 -14z m-1938 -228
c-2 -2 -81 -26 -175 -54 l-172 -50 -25 28 c-22 26 -24 36 -25 126 l0 97 60 0
c83 0 203 26 275 59 l60 27 3 -114 c1 -63 1 -116 -1 -119z m88 -125 c17 -29
31 -56 33 -59 2 -5 -312 -239 -322 -239 -6 0 -100 239 -95 244 3 3 331 102
349 105 3 1 19 -23 35 -51z m-495 -45 c0 -15 -124 -163 -131 -156 -4 4 -13 29
-20 54 -12 45 -12 46 35 118 l46 72 35 -41 c19 -23 35 -44 35 -47z m172 -359
c21 -6 36 3 274 175 l116 85 237 -119 c130 -65 239 -118 243 -117 11 3 91 -93
126 -152 56 -91 85 -189 86 -286 1 -97 -7 -116 -82 -206 -159 -190 -686 -563
-1269 -899 l-153 -88 -837 -133 c-460 -74 -838 -133 -840 -131 -3 4 -62 301
-59 303 0 1 343 95 761 209 418 114 771 214 785 221 14 7 275 201 580 432 513
387 555 420 555 447 0 27 -3 30 -30 30 -24 0 -143 -85 -590 -421 l-560 -421
-140 -38 c-77 -20 -145 -39 -151 -42 -12 -4 -50 84 -105 246 -45 131 -46 162
-9 263 40 109 160 353 283 572 l95 169 133 78 c74 43 137 75 140 71 4 -4 19
-46 33 -93 40 -134 58 -132 171 16 l79 105 54 -135 c39 -98 59 -136 74 -141z
m-1014 -340 c-59 -119 -119 -252 -134 -297 -32 -103 -29 -151 21 -306 21 -64
33 -116 28 -120 -5 -3 -62 -41 -127 -84 -64 -44 -146 -94 -182 -113 l-65 -34
-627 0 -627 0 -78 25 c-98 31 -128 31 -165 0 -21 -18 -42 -25 -71 -25 l-41 0
0 170 c0 170 0 170 23 170 12 1 342 31 734 69 l712 68 353 346 c194 191 353
346 353 347 0 0 -48 -97 -107 -216z m-2553 -355 c168 -96 293 -197 366 -296
l39 -52 0 -106 c0 -88 -2 -105 -15 -105 -9 0 -26 -11 -38 -24 -47 -50 -81 -59
-267 -67 -96 -4 -229 -15 -295 -23 -166 -22 -177 -19 -52 15 128 34 161 48
165 72 8 43 -10 47 -217 48 l-196 1 90 14 c166 26 297 53 311 65 18 15 18 43
-1 59 -10 8 -92 19 -223 29 -190 15 -201 16 -132 22 41 4 129 7 195 8 125 1
167 12 173 44 5 27 -15 45 -61 52 -83 14 -330 65 -335 70 -8 8 35 6 297 -14
135 -11 251 -17 258 -14 7 3 16 16 19 30 6 22 -7 38 -92 124 -54 54 -94 99
-88 99 5 0 50 -23 99 -51z m4231 -717 c-31 -219 -56 -402 -56 -406 0 -3 -283
-6 -630 -6 l-630 0 -20 41 c-12 23 -19 43 -16 46 3 3 71 16 152 29 140 23 152
27 238 76 294 167 758 462 941 597 49 36 71 47 73 37 2 -8 -22 -194 -52 -414z
m-1712 238 c-10 -8 -97 -31 -101 -26 -2 2 18 17 44 34 41 27 49 29 56 16 5 -9
5 -19 1 -24z m-1739 -190 c148 -47 347 -148 422 -214 56 -49 67 -54 96 -49
l34 5 22 -112 c24 -122 23 -130 -28 -130 -15 0 -39 -17 -69 -50 -51 -57 -100
-78 -232 -104 -68 -14 -268 -73 -523 -156 -17 -6 -26 -6 -22 0 4 6 12 10 18
10 7 0 76 31 155 70 137 67 142 70 142 100 0 20 -6 33 -17 37 -9 4 -102 -10
-206 -31 -104 -20 -191 -35 -194 -33 -2 3 8 8 23 11 41 11 337 127 352 139 6
5 12 20 12 32 0 46 -14 47 -241 20 -117 -14 -219 -25 -227 -23 -9 2 81 26 198
53 118 28 223 57 234 66 18 14 19 20 8 43 l-12 26 -215 0 c-118 0 -215 4 -215
8 0 4 129 23 286 42 301 36 334 44 320 86 -3 10 -60 55 -126 99 -108 72 -142
101 -107 90 6 -2 57 -18 112 -35z m1000 -15 c-5 -3 -108 -31 -228 -64 -168
-46 -222 -65 -236 -82 l-18 -23 -49 42 c-27 23 -85 62 -129 87 l-80 45 375 -1
c206 0 371 -2 365 -4z m-2162 -12 c-7 -2 -21 -2 -30 0 -10 3 -4 5 12 5 17 0
24 -2 18 -5z m3204 -433 c24 -59 30 -86 32 -168 2 -89 -3 -118 -48 -303 -97
-393 -169 -776 -210 -1104 -22 -179 -24 -206 -46 -487 -2 -35 -7 -126 -11
-203 -3 -77 -7 -158 -9 -180 -2 -22 -7 -137 -10 -255 -4 -118 -9 -235 -10
-260 -9 -136 -20 -811 -20 -1177 l1 -421 -40 20 c-66 34 -153 125 -189 197
l-32 66 -3 2131 -2 2131 242 40 c134 22 261 41 284 42 l41 1 30 -70z m1343
-160 l0 -70 -609 0 c-546 0 -609 2 -615 16 -3 9 -6 40 -6 70 l0 54 615 0 615
0 0 -70z m55 -206 c89 -201 237 -651 305 -928 146 -592 154 -941 44 -1821 -43
-346 -182 -1209 -227 -1414 l-12 -56 -483 -3 -482 -2 0 42 c0 70 59 2542 64
2686 l4 133 -131 149 c-131 148 -164 173 -192 150 -30 -25 -14 -54 111 -191
l125 -138 -31 -1333 c-17 -733 -33 -1370 -36 -1415 l-6 -83 -343 0 -344 0 -7
57 c-9 75 2 1294 15 1623 37 922 61 1215 136 1662 42 249 89 478 152 735 l47
193 606 3 c333 1 617 3 633 5 24 2 30 -4 52 -54z"/>
<path d="M25611 11784 c-46 -33 -21 -63 68 -79 39 -8 92 -23 117 -34 55 -25
87 -27 104 -6 31 37 -19 75 -143 109 -85 23 -123 26 -146 10z"/>
<path d="M25198 11668 c-24 -20 -28 -44 -12 -67 17 -23 53 -28 72 -9 19 19 15
66 -7 78 -25 13 -34 13 -53 -2z"/>
<path d="M25592 11638 c-7 -7 -12 -21 -12 -33 0 -29 19 -45 52 -45 36 0 56 36
39 69 -13 23 -59 29 -79 9z"/>
<path d="M26145 11421 c-62 -36 -99 -75 -92 -95 9 -22 40 -20 62 4 l19 21 22
-28 c21 -26 24 -27 40 -11 16 16 16 18 0 43 -17 26 -17 26 19 41 25 10 35 20
33 32 -5 27 -49 25 -103 -7z"/>
<path d="M25260 11353 c-38 -5 -109 -22 -167 -39 -40 -11 -53 -19 -53 -34 0
-10 4 -21 9 -24 5 -4 53 6 108 20 l98 27 212 -12 c117 -7 217 -10 222 -6 13 7
14 32 3 39 -5 3 -78 10 -163 15 -85 6 -174 13 -199 15 -25 2 -56 2 -70 -1z"/>
<path d="M25585 11034 c-36 -9 -125 -15 -220 -17 -143 -2 -160 -4 -163 -19 -6
-33 42 -41 203 -34 180 7 290 30 290 61 0 25 -29 28 -110 9z"/>
</g>
</svg>
